# Blender v2.75 (sub 0) OBJ File: 'cube.blend'
# www.blender.org
mtllib cube.mtl
o Cube
v 1.000000 -1.000000 -1.000000
v 1.000000 -1.000000 1.000000
v -1.000000 -1.000000 1.000000
v -1.000000 -1.000000 -1.000000
v 1.000000 1.000000 -0.999999
v 0.999999 1.000000 1.000001
v -1.000000 1.000000 1.000000
v -1.000000 1.000000 -1.000000
vt 0.250855 0.748476
vt -0.000017 0.748476
vt -0.000017 0.497604
vt -0.000017 0.497303
vt -0.000017 0.246431
vt 0.250855 0.246431
vt 0.250855 0.497604
vt 0.250855 0.497303
vt 0.250855 0.999649
vt -0.000017 0.999649
vt -0.000017 0.748777
vt 0.753202 0.497303
vt 0.502330 0.497303
vt 0.502330 0.246431
vt 0.251157 0.497604
vt 0.502029 0.497604
vt 0.502029 0.748476
vt 0.502029 0.497303
vt 0.251157 0.497303
vt 0.251157 0.246431
vt 0.250855 0.748777
vt 0.753202 0.246431
vt 0.251157 0.748476
vt 0.502029 0.246431
vn 0.000000 -1.000000 -0.000000
vn 0.000000 1.000000 0.000000
vn 1.000000 0.000000 0.000000
vn -0.000000 0.000000 1.000000
vn -1.000000 -0.000000 -0.000000
vn 0.000000 0.000000 -1.000000
usemtl Material
s off
f 1/1/1 2/2/1 3/3/1
f 8/4/2 7/5/2 6/6/2
f 4/7/1 1/1/1 3/3/1
f 5/8/2 8/4/2 6/6/2
usemtl Material_Untitled
f 5/9/3 6/10/3 2/11/3
f 6/12/4 7/13/4 3/14/4
f 7/15/5 8/16/5 4/17/5
f 1/18/6 4/19/6 8/20/6
f 1/21/3 5/9/3 2/11/3
f 2/22/4 6/12/4 3/14/4
f 3/23/5 7/15/5 4/17/5
f 5/24/6 1/18/6 8/20/6
