# Blender v2.75 (sub 0) OBJ File: 'ground.blend'
# www.blender.org
mtllib ground.mtl
o Cube
v 8.000000 -1.000000 -2.000000
v 8.000000 -1.000000 2.000000
v -8.000001 -1.000000 2.000000
v -7.999996 -1.000000 -2.000001
v 8.000004 1.000000 -1.999999
v 7.999995 1.000000 2.000001
v -8.000003 1.000000 1.999999
v -7.999999 1.000000 -2.000000
vt 0.999793 0.500412
vt 0.000206 0.500412
vt 0.000206 0.250515
vt 0.000206 0.250103
vt 0.000206 0.000206
vt 0.999793 0.000206
vt 0.250103 0.876493
vt 0.000206 0.876493
vt 0.000206 0.751545
vt 0.999793 0.751133
vt 0.000206 0.751133
vt 0.000206 0.626184
vt 0.250515 0.751545
vt 0.500412 0.751545
vt 0.500412 0.876493
vt 0.999794 0.625772
vt 0.000206 0.625772
vt 0.000206 0.500824
vt 0.999793 0.250515
vt 0.999794 0.250103
vt 0.250103 0.751545
vt 0.999793 0.626184
vt 0.250515 0.876493
vt 0.999794 0.500824
vn 0.000000 -1.000000 0.000000
vn 0.000000 1.000000 0.000000
vn 1.000000 0.000000 0.000000
vn -0.000000 0.000000 1.000000
vn -1.000000 -0.000000 -0.000000
vn 0.000000 0.000000 -1.000000
usemtl Material
s off
f 2/1/1 3/2/1 4/3/1
f 8/4/2 7/5/2 6/6/2
f 5/7/3 6/8/3 2/9/3
f 6/10/4 7/11/4 3/12/4
f 7/13/5 8/14/5 4/15/5
f 1/16/6 4/17/6 8/18/6
f 1/19/1 2/1/1 4/3/1
f 5/20/2 8/4/2 6/6/2
f 1/21/3 5/7/3 2/9/3
f 2/22/4 6/10/4 3/12/4
f 3/23/5 7/13/5 4/15/5
f 5/24/6 1/16/6 8/18/6
