# Blender v2.75 (sub 0) OBJ File: 'shadow.blend'
# www.blender.org
mtllib shadow.mtl
o Cylinder
v -0.002171 -0.003177 -0.997823
v -0.002171 -0.001177 -0.997823
v 0.192919 -0.003177 -0.978608
v 0.192919 -0.001177 -0.978608
v 0.380512 -0.003177 -0.921703
v 0.380512 -0.001177 -0.921703
v 0.553399 -0.003177 -0.829293
v 0.553399 -0.001177 -0.829293
v 0.704936 -0.003177 -0.704930
v 0.704936 -0.001177 -0.704930
v 0.829298 -0.003177 -0.553393
v 0.829298 -0.001177 -0.553393
v 0.921708 -0.003177 -0.380507
v 0.921708 -0.001177 -0.380507
v 0.978614 -0.003177 -0.192914
v 0.978614 -0.001177 -0.192914
v 0.997829 -0.003177 0.002177
v 0.997829 -0.001177 0.002177
v 0.978614 -0.003177 0.197267
v 0.978614 -0.001177 0.197267
v 0.921708 -0.003177 0.384860
v 0.921708 -0.001177 0.384860
v 0.829298 -0.003177 0.557747
v 0.829298 -0.001177 0.557747
v 0.704936 -0.003177 0.709284
v 0.704936 -0.001177 0.709284
v 0.553399 -0.003177 0.833646
v 0.553399 -0.001177 0.833646
v 0.380512 -0.003177 0.926056
v 0.380512 -0.001177 0.926056
v 0.192919 -0.003177 0.982962
v 0.192919 -0.001177 0.982962
v -0.002172 -0.003177 1.002177
v -0.002172 -0.001177 1.002177
v -0.197262 -0.003177 0.982962
v -0.197262 -0.001177 0.982962
v -0.384855 -0.003177 0.926056
v -0.384855 -0.001177 0.926056
v -0.557742 -0.003177 0.833646
v -0.557742 -0.001177 0.833646
v -0.709278 -0.003177 0.709283
v -0.709278 -0.001177 0.709283
v -0.833641 -0.003177 0.557746
v -0.833641 -0.001177 0.557746
v -0.926051 -0.003177 0.384859
v -0.926051 -0.001177 0.384859
v -0.982957 -0.003177 0.197266
v -0.982957 -0.001177 0.197266
v -1.002171 -0.003177 0.002176
v -1.002171 -0.001177 0.002176
v -0.982956 -0.003177 -0.192915
v -0.982956 -0.001177 -0.192915
v -0.926050 -0.003177 -0.380508
v -0.926050 -0.001177 -0.380508
v -0.833640 -0.003177 -0.553394
v -0.833640 -0.001177 -0.553394
v -0.709277 -0.003177 -0.704931
v -0.709277 -0.001177 -0.704931
v -0.557740 -0.003177 -0.829294
v -0.557740 -0.001177 -0.829294
v -0.384853 -0.003177 -0.921703
v -0.384853 -0.001177 -0.921703
v -0.197260 -0.003177 -0.978609
v -0.197260 -0.001177 -0.978609
vt 1.000000 0.000000
vt 1.000000 1.000000
vt 0.000000 1.000000
vt 0.500000 1.000000
vt 1.000000 0.500000
vt 0.500000 0.000000
vt 0.000000 0.500000
vt 0.000000 0.000000
vt 0.308659 0.961940
vt 0.402456 0.990393
vt 0.222215 0.915735
vt 0.084266 0.777786
vt 0.146447 0.853554
vt 0.009607 0.597546
vt 0.038060 0.691342
vt 0.038060 0.308659
vt 0.009607 0.402455
vt 0.146446 0.146447
vt 0.084265 0.222215
vt 0.308658 0.038060
vt 0.222215 0.084265
vt 0.402455 0.009607
vt 0.853553 0.146447
vt 0.597545 0.009607
vt 0.777785 0.084265
vt 0.691342 0.038060
vt 0.961940 0.308658
vt 0.915735 0.222215
vt 0.990393 0.402455
vt 0.853553 0.853553
vt 0.990393 0.597545
vt 0.915735 0.777785
vt 0.961940 0.691342
vt 0.691342 0.961940
vt 0.777785 0.915735
vt 0.597545 0.990393
vn 0.098000 -0.000000 -0.995200
vn 0.290300 -0.000000 -0.956900
vn 0.471400 -0.000000 -0.881900
vn 0.634400 -0.000000 -0.773000
vn 0.773000 0.000000 -0.634400
vn 0.881900 0.000000 -0.471400
vn 0.956900 -0.000000 -0.290300
vn 0.995200 0.000000 -0.098000
vn 0.995200 -0.000000 0.098000
vn 0.956900 0.000000 0.290300
vn 0.881900 -0.000000 0.471400
vn 0.773000 0.000000 0.634400
vn 0.634400 0.000000 0.773000
vn 0.471400 0.000000 0.881900
vn 0.290300 0.000000 0.956900
vn 0.098000 0.000000 0.995200
vn -0.098000 0.000000 0.995200
vn -0.290300 0.000000 0.956900
vn -0.471400 -0.000000 0.881900
vn -0.634400 0.000000 0.773000
vn -0.773000 0.000000 0.634400
vn -0.881900 0.000000 0.471400
vn -0.956900 -0.000000 0.290300
vn -0.995200 0.000000 0.098000
vn -0.995200 0.000000 -0.098000
vn -0.956900 0.000000 -0.290300
vn -0.881900 0.000000 -0.471400
vn -0.773000 -0.000000 -0.634400
vn -0.634400 0.000000 -0.773000
vn -0.471400 -0.000000 -0.881900
vn 0.000000 1.000000 0.000000
vn -0.098000 -0.000000 -0.995200
vn -0.290300 -0.000000 -0.956900
vn 0.000000 -1.000000 -0.000000
usemtl None
s off
f 2/1/1 4/2/1 3/3/1
f 4/1/2 6/2/2 5/3/2
f 6/1/3 8/2/3 7/3/3
f 8/1/4 10/2/4 9/3/4
f 10/1/5 12/2/5 11/3/5
f 12/1/6 14/2/6 13/3/6
f 14/1/7 16/2/7 15/3/7
f 16/1/8 18/2/8 17/3/8
f 18/1/9 20/2/9 19/3/9
f 20/1/10 22/2/10 21/3/10
f 22/1/11 24/2/11 23/3/11
f 24/1/12 26/2/12 25/3/12
f 26/1/13 28/2/13 27/3/13
f 28/1/14 30/2/14 29/3/14
f 30/1/15 32/2/15 31/3/15
f 32/1/16 34/2/16 33/3/16
f 34/1/17 36/2/17 35/3/17
f 36/1/18 38/2/18 37/3/18
f 38/1/19 40/2/19 39/3/19
f 40/1/20 42/2/20 41/3/20
f 42/1/21 44/2/21 43/3/21
f 44/1/22 46/2/22 45/3/22
f 46/1/23 48/2/23 47/3/23
f 48/1/24 50/2/24 49/3/24
f 50/1/25 52/2/25 51/3/25
f 52/1/26 54/2/26 53/3/26
f 54/1/27 56/2/27 55/3/27
f 56/1/28 58/2/28 57/3/28
f 58/1/29 60/2/29 59/3/29
f 60/1/30 62/2/30 61/3/30
f 4/4/31 52/5/31 36/6/31
f 64/1/32 2/2/32 1/3/32
f 62/1/33 64/2/33 63/3/33
f 49/7/34 17/5/34 33/6/34
f 1/8/1 2/1/1 3/3/1
f 3/8/2 4/1/2 5/3/2
f 5/8/3 6/1/3 7/3/3
f 7/8/4 8/1/4 9/3/4
f 9/8/5 10/1/5 11/3/5
f 11/8/6 12/1/6 13/3/6
f 13/8/7 14/1/7 15/3/7
f 15/8/8 16/1/8 17/3/8
f 17/8/9 18/1/9 19/3/9
f 19/8/10 20/1/10 21/3/10
f 21/8/11 22/1/11 23/3/11
f 23/8/12 24/1/12 25/3/12
f 25/8/13 26/1/13 27/3/13
f 27/8/14 28/1/14 29/3/14
f 29/8/15 30/1/15 31/3/15
f 31/8/16 32/1/16 33/3/16
f 33/8/17 34/1/17 35/3/17
f 35/8/18 36/1/18 37/3/18
f 37/8/19 38/1/19 39/3/19
f 39/8/20 40/1/20 41/3/20
f 41/8/21 42/1/21 43/3/21
f 43/8/22 44/1/22 45/3/22
f 45/8/23 46/1/23 47/3/23
f 47/8/24 48/1/24 49/3/24
f 49/8/25 50/1/25 51/3/25
f 51/8/26 52/1/26 53/3/26
f 53/8/27 54/1/27 55/3/27
f 55/8/28 56/1/28 57/3/28
f 57/8/29 58/1/29 59/3/29
f 59/8/30 60/1/30 61/3/30
f 8/9/31 6/10/31 4/4/31
f 4/4/31 10/11/31 8/9/31
f 20/7/31 14/12/31 12/13/31
f 20/7/31 18/14/31 16/15/31
f 24/16/31 22/17/31 20/7/31
f 28/18/31 26/19/31 24/16/31
f 32/20/31 30/21/31 28/18/31
f 28/18/31 34/22/31 32/20/31
f 44/23/31 38/24/31 36/6/31
f 44/23/31 42/25/31 40/26/31
f 48/27/31 46/28/31 44/23/31
f 44/23/31 50/29/31 48/27/31
f 60/30/31 54/31/31 52/5/31
f 60/30/31 58/32/31 56/33/31
f 64/34/31 62/35/31 60/30/31
f 4/4/31 2/36/31 64/34/31
f 12/13/31 10/11/31 4/4/31
f 20/7/31 16/15/31 14/12/31
f 36/6/31 24/16/31 20/7/31
f 36/6/31 34/22/31 28/18/31
f 44/23/31 40/26/31 38/24/31
f 52/5/31 50/29/31 44/23/31
f 60/30/31 56/33/31 54/31/31
f 52/5/31 64/34/31 60/30/31
f 36/6/31 12/13/31 4/4/31
f 36/6/31 28/18/31 24/16/31
f 52/5/31 44/23/31 36/6/31
f 4/4/31 64/34/31 52/5/31
f 36/6/31 20/7/31 12/13/31
f 63/8/32 64/1/32 1/3/32
f 61/8/33 62/1/33 63/3/33
f 57/13/34 63/10/34 1/4/34
f 57/13/34 59/11/34 61/9/34
f 53/15/34 55/12/34 57/13/34
f 49/7/34 51/14/34 53/15/34
f 45/16/34 47/17/34 49/7/34
f 49/7/34 43/19/34 45/16/34
f 37/20/34 39/21/34 41/18/34
f 33/6/34 35/22/34 37/20/34
f 25/23/34 31/24/34 33/6/34
f 25/23/34 27/25/34 29/26/34
f 21/27/34 23/28/34 25/23/34
f 17/5/34 19/29/34 21/27/34
f 13/33/34 15/31/34 17/5/34
f 9/30/34 11/32/34 13/33/34
f 5/34/34 7/35/34 9/30/34
f 9/30/34 3/36/34 5/34/34
f 57/13/34 61/9/34 63/10/34
f 1/4/34 53/15/34 57/13/34
f 41/18/34 43/19/34 49/7/34
f 49/7/34 37/20/34 41/18/34
f 25/23/34 29/26/34 31/24/34
f 17/5/34 21/27/34 25/23/34
f 9/30/34 13/33/34 17/5/34
f 1/4/34 3/36/34 9/30/34
f 49/7/34 53/15/34 1/4/34
f 33/6/34 37/20/34 49/7/34
f 17/5/34 25/23/34 33/6/34
f 1/4/34 9/30/34 17/5/34
f 17/5/34 49/7/34 1/4/34
