# Blender v2.75 (sub 0) OBJ File: 'snake.blend'
# www.blender.org
mtllib snake.mtl
o Cube
v 0.500000 -1.000000 -0.500000
v 0.500000 -1.000000 0.500000
v -0.500000 -1.000000 0.500000
v -0.500000 -1.000000 -0.500000
v 0.500000 1.000000 -0.500000
v 0.500000 1.000000 0.500000
v -0.500000 1.000000 0.500000
v -0.500000 1.000000 -0.500000
vt 0.500000 0.500201
vt 0.250287 0.500201
vt 0.250287 0.250488
vt 0.249910 0.250494
vt 0.249899 0.500207
vt 0.000186 0.500196
vt 0.499904 0.999618
vt 0.250191 0.999618
vt 0.250191 0.500191
vt 0.750000 0.999618
vt 0.500287 0.999618
vt 0.500287 0.500191
vt 1.000096 0.999618
vt 0.750383 0.999618
vt 0.750383 0.500191
vt 0.002201 0.500139
vt 0.251914 0.500148
vt 0.251897 0.999574
vt 0.500000 0.250488
vt 0.000197 0.250483
vt 0.499904 0.500191
vt 0.750000 0.500191
vt 1.000096 0.500191
vt 0.002183 0.999565
vn 0.000000 -1.000000 0.000000
vn 0.000000 1.000000 -0.000000
vn 1.000000 0.000000 0.000000
vn -0.000000 0.000000 1.000000
vn -1.000000 -0.000000 -0.000000
vn 0.000000 0.000000 -1.000000
usemtl Material
s off
f 1/1/1 2/2/1 3/3/1
f 8/4/2 7/5/2 6/6/2
f 5/7/3 6/8/3 2/9/3
f 6/10/4 7/11/4 3/12/4
f 7/13/5 8/14/5 4/15/5
f 1/16/6 4/17/6 8/18/6
f 4/19/1 1/1/1 3/3/1
f 5/20/2 8/4/2 6/6/2
f 1/21/3 5/7/3 2/9/3
f 2/22/4 6/10/4 3/12/4
f 3/23/5 7/13/5 4/15/5
f 5/24/6 1/16/6 8/18/6
