# Blender v2.75 (sub 0) OBJ File: 'spear.blend'
# www.blender.org
mtllib spear2.mtl
o Cube_Cube.001
v -0.355488 0.324100 1.203531
v -0.355488 0.324117 0.491996
v -0.355488 -2.047685 1.203472
v -0.355488 -2.047668 0.491936
v 0.356047 0.324100 1.203531
v 0.356047 0.324117 0.491996
v 0.356047 -2.047685 1.203472
v 0.356047 -2.047668 0.491936
v -0.355488 0.324100 1.203531
v -0.355488 0.324117 0.491996
v -0.355488 -2.047685 1.203472
v -0.355488 -2.047668 0.491936
v 0.356047 0.324100 1.203531
v 0.356047 0.324117 0.491996
v 0.356047 -2.047685 1.203472
v 0.356047 -2.047668 0.491936
v -0.355488 0.324100 1.203531
v -0.355488 0.324117 0.491996
v -0.355488 -2.047685 1.203472
v -0.355488 -2.047668 0.491936
v 0.356047 0.324100 1.203531
v 0.356047 0.324117 0.491996
v 0.356047 -2.047685 1.203472
v 0.356047 -2.047668 0.491936
vt 0.001835 0.623936
vt 0.623745 0.623936
vt 0.623745 0.437363
vt 0.624092 0.997960
vt 0.810665 0.997960
vt 0.810665 0.811387
vt 0.623745 0.811204
vt 0.001835 0.811204
vt 0.001835 0.997777
vt 0.810665 0.624466
vt 0.624092 0.624466
vt 0.624092 0.811039
vt 0.001835 0.810857
vt 0.623745 0.810857
vt 0.623745 0.624283
vt 0.001835 0.437016
vt 0.623745 0.437016
vt 0.623745 0.250443
vt 0.001835 0.437363
vt 0.624092 0.811387
vt 0.623745 0.997777
vt 0.810665 0.811039
vt 0.001835 0.624284
vt 0.001835 0.250443
vn 1.000000 0.000000 0.000000
vn 0.000000 1.000000 0.000000
vn -1.000000 -0.000000 0.000000
vn -0.000000 -1.000000 -0.000000
vn -0.000000 0.000000 -1.000000
vn 0.000000 -0.000000 1.000000
usemtl None
s off
f 1/1/1 3/2/1 4/3/1
f 3/4/2 7/5/2 8/6/2
f 7/7/3 5/8/3 6/9/3
f 5/10/4 1/11/4 2/12/4
f 5/13/5 7/14/5 3/15/5
f 2/16/6 4/17/6 8/18/6
f 9/1/1 11/2/1 12/3/1
f 11/4/2 15/5/2 16/6/2
f 15/7/3 13/8/3 14/9/3
f 13/10/4 9/11/4 10/12/4
f 13/13/5 15/14/5 11/15/5
f 10/16/6 12/17/6 16/18/6
f 20/3/3 19/2/3 17/1/3
f 24/6/4 23/5/4 19/4/4
f 22/9/1 21/8/1 23/7/1
f 18/12/2 17/11/2 21/10/2
f 19/15/6 23/14/6 21/13/6
f 24/18/5 20/17/5 18/16/5
f 2/19/1 1/1/1 4/3/1
f 4/20/2 3/4/2 8/6/2
f 8/21/3 7/7/3 6/9/3
f 6/22/4 5/10/4 2/12/4
f 1/23/5 5/13/5 3/15/5
f 6/24/6 2/16/6 8/18/6
f 10/19/1 9/1/1 12/3/1
f 12/20/2 11/4/2 16/6/2
f 16/21/3 15/7/3 14/9/3
f 14/22/4 13/10/4 10/12/4
f 9/23/5 13/13/5 11/15/5
f 14/24/6 10/16/6 16/18/6
f 18/19/3 20/3/3 17/1/3
f 20/20/4 24/6/4 19/4/4
f 24/21/1 22/9/1 23/7/1
f 22/22/2 18/12/2 21/10/2
f 17/23/6 19/15/6 21/13/6
f 22/24/5 24/18/5 18/16/5
