# Blender v2.75 (sub 0) OBJ File: 'spike_base.blend'
# www.blender.org
mtllib spike_base.mtl
o Cube
v 8.000000 -1.000000 -1.000000
v 8.000000 -1.000000 1.000000
v -8.000001 -1.000000 1.000000
v -7.999997 -1.000000 -1.000000
v 8.000004 1.000000 -1.000000
v 7.999995 1.000000 1.000001
v -8.000003 1.000000 1.000000
v -7.999999 1.000000 -1.000000
vt 0.000175 0.498483
vt 0.999842 0.498525
vt 0.999836 0.623484
vt 0.999831 0.749108
vt 0.999826 0.874066
vt 0.000159 0.874024
vt 0.251793 0.498195
vt 0.126834 0.498185
vt 0.126844 0.373227
vt 0.999836 0.748735
vt 0.000170 0.748772
vt 0.000165 0.623814
vt 0.126504 0.498187
vt 0.001545 0.498182
vt 0.001551 0.373224
vt 0.000159 0.874357
vt 0.999826 0.874399
vt 0.999820 0.999357
vt 0.000170 0.623441
vt 0.000164 0.749065
vt 0.251802 0.373236
vt 0.999831 0.623777
vt 0.126509 0.373229
vt 0.000153 0.999315
vn 0.000000 -1.000000 -0.000000
vn 0.000000 1.000000 0.000000
vn 1.000000 0.000000 0.000000
vn -0.000000 0.000000 1.000000
vn -1.000000 -0.000000 -0.000000
vn 0.000000 0.000000 -1.000000
usemtl Material
s off
f 2/1/1 3/2/1 4/3/1
f 8/4/2 7/5/2 6/6/2
f 5/7/3 6/8/3 2/9/3
f 6/10/4 7/11/4 3/12/4
f 7/13/5 8/14/5 4/15/5
f 1/16/6 4/17/6 8/18/6
f 1/19/1 2/1/1 4/3/1
f 5/20/2 8/4/2 6/6/2
f 1/21/3 5/7/3 2/9/3
f 2/22/4 6/10/4 3/12/4
f 3/23/5 7/13/5 4/15/5
f 5/24/6 1/16/6 8/18/6
