# Blender v2.75 (sub 0) OBJ File: 'wall.blend'
# www.blender.org
mtllib wall.mtl
o Cube
v 1.000000 -4.000000 -3.000000
v 1.000000 -4.000000 3.000000
v -1.000000 -4.000000 2.999999
v -1.000000 -4.000000 -3.000001
v 1.000000 4.000000 -2.999999
v 0.999999 4.000000 3.000002
v -1.000000 4.000000 2.999999
v -1.000000 4.000000 -3.000000
vt -0.001504 0.498407
vt -0.001504 0.373496
vt 0.373227 0.373496
vt 0.373227 0.248227
vt 0.373227 0.373137
vt -0.001504 0.373137
vt 0.372957 0.997867
vt -0.001773 0.997867
vt -0.001773 0.498227
vt 0.873317 0.997867
vt 0.748406 0.997867
vt 0.748406 0.498227
vt 0.748047 0.997867
vt 0.373317 0.997867
vt 0.373317 0.498227
vt 0.873227 0.498227
vt 0.998137 0.498227
vt 0.998137 0.997867
vt 0.373227 0.498407
vt -0.001504 0.248227
vt 0.372957 0.498227
vt 0.873316 0.498227
vt 0.748047 0.498227
vt 0.873227 0.997867
vn 0.000000 -1.000000 -0.000000
vn 0.000000 1.000000 -0.000000
vn 1.000000 0.000000 0.000000
vn -0.000000 0.000000 1.000000
vn -1.000000 -0.000000 -0.000000
vn 0.000000 0.000000 -1.000000
usemtl Material
s off
f 2/1/1 3/2/1 4/3/1
f 5/4/2 8/5/2 7/6/2
f 5/7/3 6/8/3 2/9/3
f 6/10/4 7/11/4 3/12/4
f 7/13/5 8/14/5 4/15/5
f 1/16/6 4/17/6 8/18/6
f 1/19/1 2/1/1 4/3/1
f 6/20/2 5/4/2 7/6/2
f 1/21/3 5/7/3 2/9/3
f 2/22/4 6/10/4 3/12/4
f 3/23/5 7/13/5 4/15/5
f 5/24/6 1/16/6 8/18/6
